<svg class="w-full h-full" viewBox="-400 -400 800 800"><g stroke="rgba(80, 80, 80, 1)" stroke-width="2"><path fill="rgba(80, 80, 80, 1)" d="M-93.256-337.347a350 350 0 0 1 186.512 0L54.578-243.97a250 250 0 0 0-109.156 0Z" style="transition:stroke .2s,fill .1s"/><path fill="rgba(80, 80, 80, 0.9995611623094578)" d="M172.599-304.483a350 350 0 0 1 131.884 131.884l-93.378 38.679a250 250 0 0 0-77.185-77.185Z" style="transition:stroke .2s,fill .1s"/><path fill="rgba(80, 80, 80, 0.9517964486471063)" d="M337.347-93.256a350 350 0 0 1 0 186.512L243.97 54.578a250 250 0 0 0 0-109.156Z" style="transition:stroke .2s,fill .1s"/><path fill="rgba(80, 80, 80, 0.19012972098978903)" d="M304.483 172.599a350 350 0 0 1-131.884 131.884l-38.679-93.378a250 250 0 0 0 77.185-77.185Z" style="transition:stroke .2s,fill .1s"/><path fill="rgba(80, 80, 80, 0.000142226886299173)" d="M93.256 337.347a350 350 0 0 1-186.512 0l38.678-93.377a250 250 0 0 0 109.156 0Z" style="transition:stroke .2s,fill .1s"/><path fill="rgba(80, 80, 80, 0.0018203935673776657)" d="M-172.599 304.483a350 350 0 0 1-131.884-131.884l93.378-38.679a250 250 0 0 0 77.185 77.185Z" style="transition:stroke .2s,fill .1s"/><path fill="rgba(80, 80, 80, 0.09522949586277256)" d="M-337.347 93.256a350 350 0 0 1 0-186.512l93.377 38.678a250 250 0 0 0 0 109.156Z" style="transition:stroke .2s,fill .1s"/><path fill="rgba(80, 80, 80, 0.8874629972931857)" d="M-304.483-172.599a350 350 0 0 1 131.884-131.884l38.679 93.378a250 250 0 0 0-77.185 77.185Z" style="transition:stroke .2s,fill .1s"/></g><path fill="#df79e8" stroke="#df79e8" d="M-205.463-307.709a370 370 0 0 1 554.224 431.265l-9.426-3.34A360 360 0 0 0-199.91-299.393Z"/><path fill="none" stroke="#68f27f" d="M303.449 244.988a390 390 0 0 1-154.601 115.49l-3.817-9.243a380 380 0 0 0 150.637-112.529Z"/><path fill="rgba(255, 196, 128, 0.5)" d="M28.797-243.302Q0 0-26.446-223.44l-2.35-19.862 2.35 19.862Q0 0 28.797-243.302Z" style="transition:fill .2s"/><path fill="rgba(128, 128, 255, 0.625)" d="M154.071 190.492a245 245 0 0 1-4.81 3.792Q0 0-29.237-223.092l.44-20.21 5.146 19.548Q0 0 154.071 190.492Z" style="transition:fill .2s"/><path fill="rgba(128, 128, 255, 0.75)" d="M-22.706 243.946a245 245 0 0 1-12.164-1.44Q0 0-32.023-222.71l3.226-20.592 7.945 19.27Q0 0-22.706 243.946Z" style="transition:fill .2s"/><path fill="rgba(128, 128, 255, 0.625)" d="M-190.492 154.071a245 245 0 0 1-3.792-4.81Q0 0-29.237-223.092l.44-20.21 5.146 19.548Q0 0-190.49 154.071Z" style="transition:fill .2s"/><path fill="rgba(255, 196, 128, 0.5)" d="M192.403-151.678Q0 0 139.296-176.696l12.382-15.707-12.382 15.707Q0 0 192.403-151.678Z" style="transition:fill .2s"/><path fill="rgba(128, 128, 255, 0.625)" d="M-25.753 243.643a245 245 0 0 1-6.083-.72Q0 0 137.077-178.424l14.601-13.979-10.184 17.462Q0 0-25.753 243.643Z" style="transition:fill .2s"/><path fill="rgba(128, 128, 255, 0.75)" d="M-188.551 156.44a245 245 0 0 1-7.583-9.619Q0 0 134.836-180.123l16.842-12.28-8.008 19.244Q0 0-188.551 156.44Z" style="transition:fill .2s"/><path fill="rgba(128, 128, 255, 0.625)" d="M-243.643-25.753a245 245 0 0 1 .72-6.083Q0 0 137.077-178.424l14.601-13.979-10.184 17.462Q0 0-243.643-25.753Z" style="transition:fill .2s"/><path fill="rgba(255, 196, 128, 0.5)" d="M243.302 28.797Q0 0 223.44-26.446l19.862-2.35-19.862 2.35Q0 0 243.302 28.797Z" style="transition:fill .2s"/><path fill="rgba(128, 128, 255, 0.625)" d="M-190.492 154.071a245 245 0 0 1-3.792-4.81Q0 0 223.092-29.237l20.21.44-19.548 5.146Q0 0-190.492 154.071Z" style="transition:fill .2s"/><path fill="rgba(128, 128, 255, 0.75)" d="M-243.946-22.706a245 245 0 0 1 1.44-12.164Q0 0 222.71-32.023l20.592 3.226-19.27 7.945Q0 0-243.946-22.706Z" style="transition:fill .2s"/><path fill="rgba(128, 128, 255, 0.625)" d="M-154.071-190.492a245 245 0 0 1 4.81-3.792Q0 0 223.092-29.237l20.21.44-19.548 5.146Q0 0-154.071-190.49Z" style="transition:fill .2s"/><path fill="rgba(128, 128, 255, 0.625)" d="M25.753-243.643a245 245 0 0 1 6.083.72Q0 0 178.424 137.077l13.979 14.601-17.462-10.184Q0 0 25.753-243.643Z" style="transition:fill .2s"/><path fill="rgba(255, 196, 128, 0.5)" d="M151.678 192.403Q0 0 176.696 139.296l15.707 12.382-15.707-12.382Q0 0 151.678 192.403Z" style="transition:fill .2s"/><path fill="rgba(128, 128, 255, 0.625)" d="M-243.643-25.753a245 245 0 0 1 .72-6.083Q0 0 178.424 137.077l13.979 14.601-17.462-10.184Q0 0-243.643-25.753Z" style="transition:fill .2s"/><path fill="rgba(128, 128, 255, 0.75)" d="M-156.44-188.551a245 245 0 0 1 9.619-7.583Q0 0 180.123 134.836l12.28 16.842-19.244-8.008Q0 0-156.44-188.551Z" style="transition:fill .2s"/><path fill="rgba(128, 128, 255, 0.75)" d="M22.706-243.946a245 245 0 0 1 12.164 1.44Q0 0 32.023 222.71l-3.226 20.592-7.945-19.27Q0 0 22.706-243.946Z" style="transition:fill .2s"/><path fill="rgba(128, 128, 255, 0.625)" d="M190.492-154.071a245 245 0 0 1 3.792 4.81Q0 0 29.237 223.092l-.44 20.21-5.146-19.548Q0 0 190.49-154.071Z" style="transition:fill .2s"/><path fill="rgba(255, 196, 128, 0.5)" d="M-28.797 243.302Q0 0 26.446 223.44l2.35 19.862-2.35-19.862Q0 0-28.797 243.302Z" style="transition:fill .2s"/><path fill="rgba(128, 128, 255, 0.625)" d="M-154.071-190.492a245 245 0 0 1 4.81-3.792Q0 0 29.237 223.092l-.44 20.21-5.146-19.548Q0 0-154.071-190.492Z" style="transition:fill .2s"/><path fill="rgba(128, 128, 255, 0.625)" d="M25.753-243.643a245 245 0 0 1 6.083.72Q0 0-137.077 178.424l-14.601 13.979 10.184-17.462Q0 0 25.753-243.643Z" style="transition:fill .2s"/><path fill="rgba(128, 128, 255, 0.75)" d="M188.551-156.44a245 245 0 0 1 7.583 9.619Q0 0-134.836 180.123l-16.842 12.28 8.008-19.244Q0 0 188.551-156.44Z" style="transition:fill .2s"/><path fill="rgba(128, 128, 255, 0.625)" d="M243.643 25.753a245 245 0 0 1-.72 6.083Q0 0-137.077 178.424l-14.601 13.979 10.184-17.462Q0 0 243.643 25.753Z" style="transition:fill .2s"/><path fill="rgba(255, 196, 128, 0.5)" d="M-192.403 151.678Q0 0-139.296 176.696l-12.382 15.707 12.382-15.707Q0 0-192.403 151.678Z" style="transition:fill .2s"/><path fill="rgba(128, 128, 255, 0.625)" d="M190.492-154.071a245 245 0 0 1 3.792 4.81Q0 0-223.092 29.237l-20.21-.44 19.548-5.146Q0 0 190.492-154.071Z" style="transition:fill .2s"/><path fill="rgba(128, 128, 255, 0.75)" d="M243.946 22.706a245 245 0 0 1-1.44 12.164Q0 0-222.71 32.023l-20.592-3.226 19.27-7.945Q0 0 243.946 22.706Z" style="transition:fill .2s"/><path fill="rgba(128, 128, 255, 0.625)" d="M154.071 190.492a245 245 0 0 1-4.81 3.792Q0 0-223.092 29.237l-20.21-.44 19.548-5.146Q0 0 154.071 190.49Z" style="transition:fill .2s"/><path fill="rgba(255, 196, 128, 0.5)" d="M-243.302-28.797Q0 0-223.44 26.446l-19.862 2.35 19.862-2.35Q0 0-243.302-28.797Z" style="transition:fill .2s"/><path fill="rgba(128, 128, 255, 0.625)" d="M243.643 25.753a245 245 0 0 1-.72 6.083Q0 0-178.424-137.077l-13.979-14.601 17.462 10.184Q0 0 243.643 25.753Z" style="transition:fill .2s"/><path fill="rgba(128, 128, 255, 0.75)" d="M156.44 188.551a245 245 0 0 1-9.619 7.583Q0 0-180.123-134.836l-12.28-16.842 19.244 8.008Q0 0 156.44 188.551Z" style="transition:fill .2s"/><path fill="rgba(128, 128, 255, 0.625)" d="M-25.753 243.643a245 245 0 0 1-6.083-.72Q0 0-178.424-137.077l-13.979-14.601 17.462 10.184Q0 0-25.753 243.643Z" style="transition:fill .2s"/><path fill="rgba(255, 196, 128, 0.5)" d="M-151.678-192.403Q0 0-176.696-139.296l-15.707-12.382 15.707 12.382Q0 0-151.678-192.403Z" style="transition:fill .2s"/><path fill="rgba(255, 196, 128, 0.75)" d="M188.551-156.44a245 245 0 0 1 7.583 9.619Q0 0-32.023-222.71l3.226-20.592 7.945 19.27Q0 0 188.55-156.44Z" style="transition:fill .2s"/><path fill="rgba(255, 196, 128, 0.625)" d="M243.643 25.753a245 245 0 0 1-.72 6.083Q0 0-29.237-223.092l.44-20.21 5.146 19.548Q0 0 243.643 25.753Z" style="transition:fill .2s"/><path fill="rgba(255, 196, 128, 0.625)" d="M-243.643-25.753a245 245 0 0 1 .72-6.083Q0 0-29.237-223.092l.44-20.21 5.146 19.548Q0 0-243.643-25.754Z" style="transition:fill .2s"/><path fill="rgba(255, 196, 128, 0.75)" d="M-156.44-188.551a245 245 0 0 1 9.619-7.583Q0 0-32.023-222.71l3.226-20.592 7.945 19.27Q0 0-156.44-188.55ZM22.706-243.946a245 245 0 0 1 12.164 1.44Q0 0 134.836-180.123l16.842-12.28-8.008 19.244Q0 0 22.706-243.946Z" style="transition:fill .2s"/><path fill="rgba(255, 196, 128, 0.75)" d="M243.946 22.706a245 245 0 0 1-1.44 12.164Q0 0 134.836-180.123l16.842-12.28-8.008 19.244Q0 0 243.946 22.706Z" style="transition:fill .2s"/><path fill="rgba(255, 196, 128, 0.625)" d="M154.071 190.492a245 245 0 0 1-4.81 3.792Q0 0 137.077-178.424l14.601-13.979-10.184 17.462Q0 0 154.07 190.492Z" style="transition:fill .2s"/><path fill="rgba(255, 196, 128, 0.625)" d="M-154.071-190.492a245 245 0 0 1 4.81-3.792Q0 0 137.077-178.424l14.601-13.979-10.184 17.462Q0 0-154.071-190.491Z" style="transition:fill .2s"/><path fill="rgba(255, 196, 128, 0.625)" d="M25.753-243.643a245 245 0 0 1 6.083.72Q0 0 223.092-29.237l20.21.44-19.548 5.146Q0 0 25.754-243.643Z" style="transition:fill .2s"/><path fill="rgba(255, 196, 128, 0.75)" d="M188.551-156.44a245 245 0 0 1 7.583 9.619Q0 0 222.71-32.023l20.592 3.226-19.27 7.945Q0 0 188.55-156.44Z" style="transition:fill .2s"/><path fill="rgba(255, 196, 128, 0.75)" d="M156.44 188.551a245 245 0 0 1-9.619 7.583Q0 0 222.71-32.023l20.592 3.226-19.27 7.945Q0 0 156.44 188.55Z" style="transition:fill .2s"/><path fill="rgba(255, 196, 128, 0.625)" d="M-25.753 243.643a245 245 0 0 1-6.083-.72Q0 0 223.092-29.237l20.21.44-19.548 5.146Q0 0-25.753 243.643Z" style="transition:fill .2s"/><path fill="rgba(255, 196, 128, 0.625)" d="M190.492-154.071a245 245 0 0 1 3.792 4.81Q0 0 178.424 137.077l13.979 14.601-17.462-10.184Q0 0 190.491-154.071Z" style="transition:fill .2s"/><path fill="rgba(255, 196, 128, 0.75)" d="M243.946 22.706a245 245 0 0 1-1.44 12.164Q0 0 180.123 134.836l12.28 16.842-19.244-8.008Q0 0 243.946 22.706Z" style="transition:fill .2s"/><path fill="rgba(255, 196, 128, 0.75)" d="M-22.706 243.946a245 245 0 0 1-12.164-1.44Q0 0 180.123 134.836l12.28 16.842-19.244-8.008Q0 0-22.706 243.946Z" style="transition:fill .2s"/><path fill="rgba(255, 196, 128, 0.625)" d="M-190.492 154.071a245 245 0 0 1-3.792-4.81Q0 0 178.424 137.077l13.979 14.601-17.462-10.184Q0 0-190.492 154.07Z" style="transition:fill .2s"/><path fill="rgba(255, 196, 128, 0.625)" d="M243.643 25.753a245 245 0 0 1-.72 6.083Q0 0 29.237 223.092l-.44 20.21-5.146-19.548Q0 0 243.643 25.754Z" style="transition:fill .2s"/><path fill="rgba(255, 196, 128, 0.75)" d="M156.44 188.551a245 245 0 0 1-9.619 7.583Q0 0 32.023 222.71l-3.226 20.592-7.945-19.27Q0 0 156.44 188.55Z" style="transition:fill .2s"/><path fill="rgba(255, 196, 128, 0.75)" d="M-188.551 156.44a245 245 0 0 1-7.583-9.619Q0 0 32.023 222.71l-3.226 20.592-7.945-19.27Q0 0-188.55 156.44Z" style="transition:fill .2s"/><path fill="rgba(255, 196, 128, 0.625)" d="M-243.643-25.753a245 245 0 0 1 .72-6.083Q0 0 29.237 223.092l-.44 20.21-5.146-19.548Q0 0-243.643-25.753Z" style="transition:fill .2s"/><path fill="rgba(255, 196, 128, 0.625)" d="M154.071 190.492a245 245 0 0 1-4.81 3.792Q0 0-137.077 178.424l-14.601 13.979 10.184-17.462Q0 0 154.071 190.491Z" style="transition:fill .2s"/><path fill="rgba(255, 196, 128, 0.75)" d="M-22.706 243.946a245 245 0 0 1-12.164-1.44Q0 0-134.836 180.123l-16.842 12.28 8.008-19.244Q0 0-22.706 243.946Z" style="transition:fill .2s"/><path fill="rgba(255, 196, 128, 0.75)" d="M-243.946-22.706a245 245 0 0 1 1.44-12.164Q0 0-134.836 180.123l-16.842 12.28 8.008-19.244Q0 0-243.946-22.706Z" style="transition:fill .2s"/><path fill="rgba(255, 196, 128, 0.625)" d="M-154.071-190.492a245 245 0 0 1 4.81-3.792Q0 0-137.077 178.424l-14.601 13.979 10.184-17.462Q0 0-154.07-190.492Z" style="transition:fill .2s"/><path fill="rgba(255, 196, 128, 0.625)" d="M25.753-243.643a245 245 0 0 1 6.083.72Q0 0-223.092 29.237l-20.21-.44 19.548-5.146Q0 0 25.753-243.643Z" style="transition:fill .2s"/><path fill="rgba(255, 196, 128, 0.625)" d="M-25.753 243.643a245 245 0 0 1-6.083-.72Q0 0-223.092 29.237l-20.21-.44 19.548-5.146Q0 0-25.754 243.643Z" style="transition:fill .2s"/><path fill="rgba(255, 196, 128, 0.75)" d="M-188.551 156.44a245 245 0 0 1-7.583-9.619Q0 0-222.71 32.023l-20.592-3.226 19.27-7.945Q0 0-188.55 156.44Z" style="transition:fill .2s"/><path fill="rgba(255, 196, 128, 0.75)" d="M-156.44-188.551a245 245 0 0 1 9.619-7.583Q0 0-222.71 32.023l-20.592-3.226 19.27-7.945Q0 0-156.44-188.55Z" style="transition:fill .2s"/><path fill="rgba(255, 196, 128, 0.75)" d="M22.706-243.946a245 245 0 0 1 12.164 1.44Q0 0-180.123-134.836l-12.28-16.842 19.244 8.008Q0 0 22.706-243.946Z" style="transition:fill .2s"/><path fill="rgba(255, 196, 128, 0.625)" d="M190.492-154.071a245 245 0 0 1 3.792 4.81Q0 0-178.424-137.077l-13.979-14.601 17.462 10.184Q0 0 190.492-154.07Z" style="transition:fill .2s"/><path fill="rgba(255, 196, 128, 0.625)" d="M-190.492 154.071a245 245 0 0 1-3.792-4.81Q0 0-178.424-137.077l-13.979-14.601 17.462 10.184Q0 0-190.491 154.071Z" style="transition:fill .2s"/><path fill="rgba(255, 196, 128, 0.75)" d="M-243.946-22.706a245 245 0 0 1 1.44-12.164Q0 0-180.123-134.836l-12.28-16.842 19.244 8.008Q0 0-243.946-22.706Z" style="transition:fill .2s"/></svg>